<?xml version="1.0" standalone="no"?>
<!DOCTYPE svg PUBLIC "-//W3C//DTD SVG 20010904//EN"
 "http://www.w3.org/TR/2001/REC-SVG-20010904/DTD/svg10.dtd">
<svg version="1.0" xmlns="http://www.w3.org/2000/svg"
 width="26.000000pt" height="26.000000pt" viewBox="0 0 26.000000 26.000000"
 preserveAspectRatio="xMidYMid meet">

<g transform="translate(0.000000,26.000000) scale(0.100000,-0.100000)"
fill="#000000" stroke="none">
<path d="M25 235 c-22 -22 -25 -32 -25 -105 0 -73 3 -83 25 -105 22 -22 32
-25 105 -25 73 0 83 3 105 25 22 22 25 32 25 105 0 73 -3 83 -25 105 -22 22
-32 25 -105 25 -73 0 -83 -3 -105 -25z m197 -12 c25 -22 26 -157 1 -185 -22
-25 -157 -26 -185 -1 -25 22 -26 157 -1 185 22 25 157 26 185 1z"/>
<path d="M120 160 c0 -13 -7 -20 -20 -20 -11 0 -20 -4 -20 -10 0 -5 9 -10 20
-10 13 0 20 -7 20 -20 0 -11 5 -20 10 -20 6 0 10 9 10 20 0 13 7 20 20 20 11
0 20 5 20 10 0 6 -9 10 -20 10 -13 0 -20 7 -20 20 0 11 -4 20 -10 20 -5 0 -10
-9 -10 -20z"/>
</g>
</svg>
